<svg width="57" height="57" viewBox="0 0 57 57" fill="none" xmlns="http://www.w3.org/2000/svg">
<path d="M47.5 9.5H9.5C6.8875 9.5 4.75 11.6375 4.75 14.25V42.75C4.75 45.3625 6.8875 47.5 9.5 47.5H47.5C50.1125 47.5 52.25 45.3625 52.25 42.75V14.25C52.25 11.6375 50.1125 9.5 47.5 9.5ZM47.5 42.75H9.5V14.25H47.5V42.75Z" fill="#9F64FF"/>
<path d="M19.6887 37.3113C17.2662 34.8888 16.0312 31.7063 16.0312 28.5C16.0312 25.2938 17.2662 22.1113 19.665 19.665L16.7437 16.7438C13.49 19.9738 11.875 24.2488 11.875 28.5C11.875 32.7513 13.49 37.0263 16.7675 40.2325L19.6887 37.3113Z" fill="#9F64FF"/>
<path d="M28.5 36.8125C33.0837 36.8125 36.8125 33.0837 36.8125 28.5C36.8125 23.9163 33.0837 20.1875 28.5 20.1875C23.9163 20.1875 20.1875 23.9163 20.1875 28.5C20.1875 33.0837 23.9163 36.8125 28.5 36.8125ZM28.5 24.9375C30.4712 24.9375 32.0625 26.5288 32.0625 28.5C32.0625 30.4712 30.4712 32.0625 28.5 32.0625C26.5288 32.0625 24.9375 30.4712 24.9375 28.5C24.9375 26.5288 26.5288 24.9375 28.5 24.9375Z" fill="#9F64FF"/>
<path d="M37.335 37.335L40.2563 40.2563C43.51 37.0263 45.125 32.7513 45.125 28.5C45.125 24.2488 43.51 19.9738 40.2325 16.7675L37.3112 19.6888C39.7337 22.1113 40.9687 25.2938 40.9687 28.5C40.9687 31.7063 39.7337 34.8888 37.335 37.335Z" fill="#9F64FF"/>
</svg>
