<svg width="16" height="16" viewBox="0 0 16 16" fill="none" xmlns="http://www.w3.org/2000/svg">
<path d="M13.5352 1.98962C13.3425 1.998 13.1657 2.0534 13.0104 2.11462C12.8669 2.17112 12.3517 2.38768 11.5313 2.73181C10.7108 3.07593 9.62365 3.53219 8.46484 4.01957C6.14723 4.99431 3.54283 6.09078 2.20833 6.65238C2.16251 6.67147 1.97639 6.72845 1.77083 6.88545C1.5648 7.04282 1.33594 7.38434 1.33594 7.75785C1.33594 8.05915 1.48635 8.36601 1.66797 8.5417C1.84959 8.71739 2.03366 8.79953 2.1875 8.86071C2.63756 9.03994 4.02833 9.59534 4.63281 9.83727C4.84458 10.4719 5.34195 11.9667 5.45833 12.3347H5.45703C5.55171 12.6341 5.64399 12.8293 5.77214 12.9922C5.83621 13.0737 5.91269 13.1475 6.00651 13.2058C6.04251 13.2281 6.08236 13.2455 6.1224 13.2618C6.12797 13.2641 6.13372 13.2647 6.13932 13.267L6.1237 13.2631C6.13531 13.2677 6.14572 13.2746 6.15755 13.2787C6.17683 13.2853 6.19019 13.2851 6.21615 13.2904C6.30748 13.3185 6.39865 13.3373 6.48307 13.3373C6.84548 13.3373 7.06771 13.1407 7.06771 13.1407L7.08203 13.1302L8.64714 11.806L10.5638 13.5782C10.5981 13.6266 10.8721 13.9987 11.5078 13.9987C11.8866 13.9987 12.1873 13.8126 12.3789 13.6159C12.5705 13.4193 12.6898 13.2181 12.7435 12.9453V12.9427V12.9414C12.7807 12.7479 14.6211 3.51045 14.6211 3.51045L14.6172 3.52608C14.6743 3.27118 14.6912 3.02468 14.6237 2.77347C14.5562 2.52227 14.3742 2.27712 14.1549 2.14847C13.9357 2.01983 13.7278 1.98124 13.5352 1.98962ZM13.2721 3.44925C13.1998 3.81219 11.5621 12.04 11.4557 12.586L9.55208 10.8269C9.06139 10.3732 8.29625 10.3572 7.78646 10.7878L6.8151 11.6094L7.33333 9.58337C7.33333 9.58337 10.9084 5.96461 11.1237 5.75394C11.297 5.58527 11.3333 5.52615 11.3333 5.46748C11.3333 5.38948 11.2932 5.33337 11.2005 5.33337C11.1172 5.33337 11.004 5.41322 10.944 5.45055C10.1783 5.92791 6.90009 7.79618 5.3125 8.69925C5.25287 8.66354 5.19421 8.62648 5.12891 8.60029C4.60799 8.39181 3.60675 7.9904 3.02083 7.75654C4.40368 7.17455 6.7741 6.17724 8.98177 5.24873C10.1404 4.76144 11.2272 4.30477 12.0469 3.96097C12.7388 3.67077 13.0997 3.5205 13.2721 3.44925ZM11.4349 12.6823H11.4362C11.4362 12.6825 11.435 12.6873 11.4349 12.6875C11.436 12.6818 11.4341 12.6864 11.4349 12.6823Z" fill="white"/>
</svg>
